<svg width="34" height="24" viewBox="0 0 34 24" fill="none" xmlns="http://www.w3.org/2000/svg">
<path d="M32.8913 16.4348H31.7826V10.8914C31.7826 9.0573 30.2905 7.5653 28.4565 7.5653H24.8209L23.3616 3.1873C22.908 1.82704 21.6399 0.913086 20.2061 0.913086C20.0334 0.913086 8.04731 0.913086 7.76083 0.913086C6.31543 0.913086 5.08313 1.84005 4.62546 3.13046H3.32609C1.49208 3.13046 0 4.62254 0 6.4565V10.8914C0 12.7254 1.49208 14.2174 3.32609 14.2174H4.43481V16.4348H3.32609C2.71382 16.4348 2.21737 16.9312 2.21737 17.5435C2.21737 18.1559 2.71376 18.6523 3.32609 18.6523C4.36442 18.6523 5.6104 18.6523 6.65218 18.6523C6.65218 21.0976 8.64164 23.0871 11.087 23.0871C13.5323 23.0871 15.5218 21.0976 15.5218 18.6523H20.6957C20.6957 21.0976 22.6852 23.0871 25.1305 23.0871C27.5759 23.0871 29.5653 21.0976 29.5653 18.6523C30.6074 18.6523 31.8538 18.6523 32.8914 18.6523C33.5037 18.6523 34.0001 18.1559 34.0001 17.5435C34.0001 16.9312 33.5036 16.4348 32.8913 16.4348ZM4.43481 12H3.32609C2.71475 12 2.21737 11.5026 2.21737 10.8913V6.4565C2.21737 5.8451 2.71475 5.3478 3.32609 5.3478H4.43481C4.43481 6.0542 4.43481 11.315 4.43481 12ZM15.5217 3.13046H17.3696H20.2061C20.6841 3.13046 21.1068 3.43513 21.2579 3.88848L22.4834 7.5652H15.5217V3.13046ZM6.65218 4.23911C6.65218 3.62777 7.14956 3.13039 7.7609 3.13039H13.3044V7.5652H6.65218V4.23911ZM11.087 20.8696C9.86432 20.8696 8.86962 19.8749 8.86962 18.6522C8.86962 17.4295 9.86432 16.4348 11.087 16.4348C12.3097 16.4348 13.3044 17.4295 13.3044 18.6522C13.3044 19.8749 12.3097 20.8696 11.087 20.8696ZM25.1304 20.8696C23.9078 20.8696 22.9131 19.8749 22.9131 18.6522C22.9131 17.4295 23.9078 16.4348 25.1304 16.4348C26.3531 16.4348 27.3478 17.4295 27.3478 18.6522C27.3478 19.8749 26.3531 20.8696 25.1304 20.8696ZM29.5652 16.4348H28.9686C28.2005 15.1106 26.7683 14.2174 25.1304 14.2174C23.4926 14.2174 22.0604 15.1106 21.2923 16.4348H14.9251C14.1571 15.1106 12.7248 14.2174 11.087 14.2174C9.44914 14.2174 8.01689 15.1106 7.24884 16.4348H6.65225V13.1087V9.7826C8.46022 9.7826 27.2694 9.7826 28.4566 9.7826C29.0679 9.7826 29.5653 10.28 29.5653 10.8914L29.5652 16.4348Z" fill="#050B20"/>
</svg>
