<svg width="20" height="20" viewBox="0 0 20 20" fill="none" xmlns="http://www.w3.org/2000/svg">
<g clip-path="url(#clip0_8_39)">
<path d="M10 20C4.48333 20 0 15.5167 0 10C0 4.48333 4.48333 0 10 0C15.5167 0 20 4.48333 20 10C20 15.5167 15.5167 20 10 20ZM10 0.833333C4.95 0.833333 0.833333 4.95 0.833333 10C0.833333 15.05 4.95 19.1667 10 19.1667C15.05 19.1667 19.1667 15.05 19.1667 10C19.1667 4.95 15.05 0.833333 10 0.833333Z" fill="#ffc107"/>
<path d="M10.0001 20C6.78339 20 4.26672 15.6 4.26672 10C4.26672 4.4 6.78339 0 10.0001 0C13.2167 0 15.7334 4.4 15.7334 10C15.7334 15.6 13.2167 20 10.0001 20ZM10.0001 0.833333C7.30006 0.833333 5.08339 4.95 5.08339 10C5.08339 15.05 7.28339 19.1667 10.0001 19.1667C12.7167 19.1667 14.9167 15.05 14.9167 10C14.9167 4.95 12.7001 0.833333 10.0001 0.833333Z" fill="#ffc107"/>
<path d="M2.03329 4.26666H17.9666V5.1H2.03329V4.26666ZM2.03329 14.9167H17.9666V15.75H2.03329V14.9167ZM0.416626 9.58333H19.5833V10.4167H0.416626V9.58333Z" fill="#ffc107"/>
<path d="M9.58337 0.416656H10.4167V19.5833H9.58337V0.416656Z" fill="#ffc107"/>
</g>
<defs>
<clipPath id="clip0_8_39">
<rect width="20" height="20" fill="white"/>
</clipPath>
</defs>
</svg>
