<svg width="30" height="22" viewBox="0 0 30 22" fill="none" xmlns="http://www.w3.org/2000/svg">
<path d="M28.5394 9.7463L24.3033 8.0526L21.8414 2.30769C21.3378 1.13362 20.1882 0.375 18.9111 0.375H9.1658C7.75056 0.375 6.48938 1.32594 6.1005 2.687L4.63637 7.8125H2.25C1.07806 7.8125 0.125 8.7656 0.125 9.9375V16.3125C0.125 17.4844 1.07806 18.4375 2.25 18.4375H4.52588C5.00081 20.265 6.65088 21.625 8.625 21.625C10.5991 21.625 12.2492 20.265 12.7241 18.4375H17.2759C17.7508 20.265 19.4009 21.625 21.375 21.625C23.3491 21.625 24.9992 20.265 25.4741 18.4375H27.75C28.9219 18.4375 29.875 17.4844 29.875 16.3125V11.7193C29.875 10.8449 29.3512 10.0703 28.5394 9.7463ZM8.625 19.5C7.45306 19.5 6.5 18.5469 6.5 17.375C6.5 16.2031 7.45306 15.25 8.625 15.25C9.7969 15.25 10.75 16.2031 10.75 17.375C10.75 18.5469 9.7969 19.5 8.625 19.5ZM21.375 19.5C20.2031 19.5 19.25 18.5469 19.25 17.375C19.25 16.2031 20.2031 15.25 21.375 15.25C22.5469 15.25 23.5 16.2031 23.5 17.375C23.5 18.5469 22.5469 19.5 21.375 19.5ZM27.75 16.3125H25.4741C24.9992 14.485 23.3491 13.125 21.375 13.125C19.4009 13.125 17.7508 14.485 17.2759 16.3125H12.7241C12.2492 14.485 10.5991 13.125 8.625 13.125C6.65088 13.125 5.00081 14.485 4.52588 16.3125H2.25V9.9375H5.4375C5.91138 9.9375 6.32894 9.623 6.45856 9.1672L8.1426 3.27137C8.2733 2.81662 8.693 2.5 9.1658 2.5H18.9111C19.3361 2.5 19.7196 2.75287 19.8875 3.14387L22.5225 9.2936C22.633 9.5529 22.8423 9.7569 23.1037 9.8621L27.75 11.7193V16.3125Z" fill="#050B20"/>
</svg>
