<svg width="34" height="18" viewBox="0 0 34 18" fill="none" xmlns="http://www.w3.org/2000/svg">
<path d="M30.6768 8.08049L30.6767 8.08065L30.6891 8.0824C32.2913 8.3085 33.5 9.69848 33.5 11.3178V13.9548C33.5 14.2287 33.2779 14.4508 33.0039 14.4508H28.786H28.4418L28.3189 14.7723C27.9226 15.8095 26.9112 16.5494 25.729 16.5494C24.5468 16.5494 23.5354 15.8095 23.1391 14.7723L23.0162 14.4508H22.672H10.3005H9.95633L9.83345 14.7723C9.43702 15.8095 8.42561 16.5494 7.24339 16.5494C6.06117 16.5494 5.04974 15.8095 4.65337 14.7723L4.53051 14.4508H4.18632H0.99609C0.72207 14.4508 0.5 14.2287 0.5 13.9548V9.0499C0.5 8.6915 0.593415 8.35555 0.756888 8.063L0.756974 8.06305L0.761643 8.05429C0.766462 8.04525 0.770278 8.03755 0.772736 8.03251L0.773069 8.03182L3.40093 3.38765C3.40093 3.38765 3.40093 3.38764 3.40094 3.38764C4.07688 2.19317 5.35013 1.45068 6.7225 1.45068H16.2806C18.4515 1.45068 20.6087 2.4408 22.5157 4.38301C23.4734 5.35835 24.1334 6.33376 24.464 6.87075L24.5833 7.06439L24.8076 7.10179L30.6768 8.08049ZM0.766909 8.04271L0.767063 8.04244L0.766909 8.04271ZM22.3976 7.0182H23.4221L22.7918 6.21058C21.613 4.70014 19.3505 2.4429 16.2806 2.4429H15.222H14.722V2.9429V6.5182V7.0182H15.222H22.3976ZM8.57371 2.4429H8.07371V2.9429V6.5182V7.0182H8.57371H13.2299H13.7299V6.5182V2.9429V2.4429H13.2299H8.57371ZM4.26448 3.87626L4.26448 3.87627L2.90886 6.27196L2.48659 7.0182H3.34402H6.58152H7.08152V6.5182V2.9477V2.41632L6.55112 2.44863C5.60169 2.50646 4.73684 3.04151 4.26448 3.87626ZM28.4031 13.0893L28.5031 13.4586L28.8857 13.4586L32.0078 13.4587L32.5078 13.4587V12.9587V11.6499V11.1499H32.0078H31.2281C30.9541 11.1499 30.732 10.9278 30.732 10.6538C30.732 10.4287 30.883 10.2371 31.0916 10.1774L32.4095 9.80044L31.1584 9.24035C30.9662 9.15429 30.7591 9.09347 30.5412 9.06363L30.5398 9.06343L30.5267 9.06141L30.5267 9.06141L24.2652 8.01722L24.2244 8.0104H24.183H2.53167C1.958 8.0104 1.49219 8.47628 1.49219 9.0499V12.9586V13.4586H1.99219H4.08657H4.46914L4.56918 13.0893C4.88602 11.9197 5.96442 11.0538 7.24339 11.0538C8.52238 11.0538 9.60076 11.9197 9.91748 13.0893L10.0175 13.4586H10.4001H22.5721H22.9547L23.0547 13.0894C23.3716 11.9197 24.45 11.0538 25.729 11.0538C27.0079 11.0538 28.0864 11.9197 28.4031 13.0893ZM5.46647 13.8016C5.46647 14.7781 6.27113 15.5572 7.24339 15.5572C8.21566 15.5572 9.02032 14.7781 9.02032 13.8016C9.02032 12.8253 8.21568 12.046 7.24339 12.046C6.27111 12.046 5.46647 12.8253 5.46647 13.8016ZM23.952 13.8016C23.952 14.7781 24.7567 15.5572 25.729 15.5572C26.7013 15.5572 27.5059 14.7781 27.5059 13.8016C27.5059 12.8253 26.7013 12.046 25.729 12.046C24.7568 12.046 23.952 12.8252 23.952 13.8016Z" fill="#050B20"/>
<path d="M30.6768 8.08049L30.6767 8.08065L30.6891 8.0824C32.2913 8.3085 33.5 9.69848 33.5 11.3178V13.9548C33.5 14.2287 33.2779 14.4508 33.0039 14.4508H28.786H28.4418L28.3189 14.7723C27.9226 15.8095 26.9112 16.5494 25.729 16.5494C24.5468 16.5494 23.5354 15.8095 23.1391 14.7723L23.0162 14.4508H22.672H10.3005H9.95633L9.83345 14.7723C9.43702 15.8095 8.42561 16.5494 7.24339 16.5494C6.06117 16.5494 5.04974 15.8095 4.65337 14.7723L4.53051 14.4508H4.18632H0.99609C0.72207 14.4508 0.5 14.2287 0.5 13.9548V9.0499C0.5 8.6915 0.593415 8.35555 0.756888 8.063L0.756974 8.06305L0.761643 8.05429C0.766462 8.04525 0.770278 8.03755 0.772736 8.03251L0.773069 8.03182L3.40093 3.38765C3.40093 3.38765 3.40093 3.38764 3.40094 3.38764C4.07688 2.19317 5.35013 1.45068 6.7225 1.45068H16.2806C18.4515 1.45068 20.6087 2.4408 22.5157 4.38301C23.4734 5.35835 24.1334 6.33376 24.464 6.87075L24.5833 7.06439L24.8076 7.10179L30.6768 8.08049ZM0.766909 8.04271L0.767063 8.04244L0.766909 8.04271ZM22.3976 7.0182H23.4221L22.7918 6.21058C21.613 4.70014 19.3505 2.4429 16.2806 2.4429H15.222H14.722V2.9429V6.5182V7.0182H15.222H22.3976ZM8.57371 2.4429H8.07371V2.9429V6.5182V7.0182H8.57371H13.2299H13.7299V6.5182V2.9429V2.4429H13.2299H8.57371ZM4.26448 3.87626L4.26448 3.87627L2.90886 6.27196L2.48659 7.0182H3.34402H6.58152H7.08152V6.5182V2.9477V2.41632L6.55112 2.44863C5.60169 2.50646 4.73684 3.04151 4.26448 3.87626ZM28.4031 13.0893L28.5031 13.4586L28.8857 13.4586L32.0078 13.4587L32.5078 13.4587V12.9587V11.6499V11.1499H32.0078H31.2281C30.9541 11.1499 30.732 10.9278 30.732 10.6538C30.732 10.4287 30.883 10.2371 31.0916 10.1774L32.4095 9.80044L31.1584 9.24035C30.9662 9.15429 30.7591 9.09347 30.5412 9.06363L30.5398 9.06343L30.5267 9.06141L30.5267 9.06141L24.2652 8.01722L24.2244 8.0104H24.183H2.53167C1.958 8.0104 1.49219 8.47628 1.49219 9.0499V12.9586V13.4586H1.99219H4.08657H4.46914L4.56918 13.0893C4.88602 11.9197 5.96442 11.0538 7.24339 11.0538C8.52238 11.0538 9.60076 11.9197 9.91748 13.0893L10.0175 13.4586H10.4001H22.5721H22.9547L23.0547 13.0894C23.3716 11.9197 24.45 11.0538 25.729 11.0538C27.0079 11.0538 28.0864 11.9197 28.4031 13.0893ZM5.46647 13.8016C5.46647 14.7781 6.27113 15.5572 7.24339 15.5572C8.21566 15.5572 9.02032 14.7781 9.02032 13.8016C9.02032 12.8253 8.21568 12.046 7.24339 12.046C6.27111 12.046 5.46647 12.8253 5.46647 13.8016ZM23.952 13.8016C23.952 14.7781 24.7567 15.5572 25.729 15.5572C26.7013 15.5572 27.5059 14.7781 27.5059 13.8016C27.5059 12.8253 26.7013 12.046 25.729 12.046C24.7568 12.046 23.952 12.8252 23.952 13.8016Z" stroke="black"/>
<path d="M30.6768 8.08049L30.6767 8.08065L30.6891 8.0824C32.2913 8.3085 33.5 9.69848 33.5 11.3178V13.9548C33.5 14.2287 33.2779 14.4508 33.0039 14.4508H28.786H28.4418L28.3189 14.7723C27.9226 15.8095 26.9112 16.5494 25.729 16.5494C24.5468 16.5494 23.5354 15.8095 23.1391 14.7723L23.0162 14.4508H22.672H10.3005H9.95633L9.83345 14.7723C9.43702 15.8095 8.42561 16.5494 7.24339 16.5494C6.06117 16.5494 5.04974 15.8095 4.65337 14.7723L4.53051 14.4508H4.18632H0.99609C0.72207 14.4508 0.5 14.2287 0.5 13.9548V9.0499C0.5 8.6915 0.593415 8.35555 0.756888 8.063L0.756974 8.06305L0.761643 8.05429C0.766462 8.04525 0.770278 8.03755 0.772736 8.03251L0.773069 8.03182L3.40093 3.38765C3.40093 3.38765 3.40093 3.38764 3.40094 3.38764C4.07688 2.19317 5.35013 1.45068 6.7225 1.45068H16.2806C18.4515 1.45068 20.6087 2.4408 22.5157 4.38301C23.4734 5.35835 24.1334 6.33376 24.464 6.87075L24.5833 7.06439L24.8076 7.10179L30.6768 8.08049ZM0.766909 8.04271L0.767063 8.04244L0.766909 8.04271ZM22.3976 7.0182H23.4221L22.7918 6.21058C21.613 4.70014 19.3505 2.4429 16.2806 2.4429H15.222H14.722V2.9429V6.5182V7.0182H15.222H22.3976ZM8.57371 2.4429H8.07371V2.9429V6.5182V7.0182H8.57371H13.2299H13.7299V6.5182V2.9429V2.4429H13.2299H8.57371ZM4.26448 3.87626L4.26448 3.87627L2.90886 6.27196L2.48659 7.0182H3.34402H6.58152H7.08152V6.5182V2.9477V2.41632L6.55112 2.44863C5.60169 2.50646 4.73684 3.04151 4.26448 3.87626ZM28.4031 13.0893L28.5031 13.4586L28.8857 13.4586L32.0078 13.4587L32.5078 13.4587V12.9587V11.6499V11.1499H32.0078H31.2281C30.9541 11.1499 30.732 10.9278 30.732 10.6538C30.732 10.4287 30.883 10.2371 31.0916 10.1774L32.4095 9.80044L31.1584 9.24035C30.9662 9.15429 30.7591 9.09347 30.5412 9.06363L30.5398 9.06343L30.5267 9.06141L30.5267 9.06141L24.2652 8.01722L24.2244 8.0104H24.183H2.53167C1.958 8.0104 1.49219 8.47628 1.49219 9.0499V12.9586V13.4586H1.99219H4.08657H4.46914L4.56918 13.0893C4.88602 11.9197 5.96442 11.0538 7.24339 11.0538C8.52238 11.0538 9.60076 11.9197 9.91748 13.0893L10.0175 13.4586H10.4001H22.5721H22.9547L23.0547 13.0894C23.3716 11.9197 24.45 11.0538 25.729 11.0538C27.0079 11.0538 28.0864 11.9197 28.4031 13.0893ZM5.46647 13.8016C5.46647 14.7781 6.27113 15.5572 7.24339 15.5572C8.21566 15.5572 9.02032 14.7781 9.02032 13.8016C9.02032 12.8253 8.21568 12.046 7.24339 12.046C6.27111 12.046 5.46647 12.8253 5.46647 13.8016ZM23.952 13.8016C23.952 14.7781 24.7567 15.5572 25.729 15.5572C26.7013 15.5572 27.5059 14.7781 27.5059 13.8016C27.5059 12.8253 26.7013 12.046 25.729 12.046C24.7568 12.046 23.952 12.8252 23.952 13.8016Z" stroke="black" stroke-opacity="0.2"/>
</svg>
