<svg width="30" height="19" viewBox="0 0 30 19" fill="none" xmlns="http://www.w3.org/2000/svg">
<path d="M24.5625 5.8124H23.3194C23.1795 5.8133 23.0409 5.7865 22.9115 5.7336C22.782 5.6807 22.6643 5.6028 22.565 5.5043L19.7387 2.6781C19.0418 1.9811 18.2132 1.42962 17.3012 1.0557C16.3891 0.681768 15.4119 0.492858 14.4263 0.499948H5.4375C4.02854 0.499948 2.67728 1.05966 1.681 2.0559C0.68471 3.0522 0.125 4.4035 0.125 5.8124V11.1249C0.125 11.9703 0.46083 12.7811 1.0586 13.3789C1.65637 13.9766 2.46712 14.3124 3.3125 14.3124C3.3125 15.2987 3.7043 16.2446 4.4017 16.942C5.0991 17.6394 6.04498 18.0312 7.03125 18.0312C8.0175 18.0312 8.9634 17.6394 9.6608 16.942C10.3582 16.2446 10.75 15.2987 10.75 14.3124H18.2938C18.4112 15.2014 18.8478 16.0174 19.5221 16.6085C20.1965 17.1996 21.0626 17.5255 21.9594 17.5255C22.8561 17.5255 23.7223 17.1996 24.3966 16.6085C25.071 16.0174 25.5075 15.2014 25.625 14.3124H26.6875C27.5329 14.3124 28.3436 13.9766 28.9414 13.3789C29.5392 12.7811 29.875 11.9703 29.875 11.1249C29.875 9.716 29.3153 8.3647 28.319 7.3684C27.3227 6.3722 25.9715 5.8124 24.5625 5.8124ZM14.4794 2.6249C15.1775 2.6237 15.869 2.7601 16.5144 3.0262C17.1598 3.2924 17.7464 3.6832 18.2406 4.1762L19.8769 5.8124H6.755C6.55699 5.8138 6.36253 5.7598 6.19357 5.6566C6.0246 5.5533 5.88785 5.4049 5.79875 5.2281L4.56625 2.7631C4.84804 2.6734 5.14178 2.6268 5.4375 2.6249H14.4794ZM2.25 11.1249V5.8124C2.25058 5.1672 2.44694 4.5374 2.81313 4.0062L3.87563 6.1312C4.13626 6.6733 4.54495 7.1305 5.05446 7.4501C5.56398 7.7698 6.15353 7.9387 6.755 7.9374H12.875V12.1874H10.3781C10.0797 11.5519 9.6064 11.0144 9.0137 10.638C8.421 10.2615 7.7334 10.0616 7.03125 10.0616C6.3291 10.0616 5.64146 10.2615 5.04876 10.638C4.45607 11.0144 3.98282 11.5519 3.68437 12.1874H3.3125C3.03071 12.1874 2.76046 12.0755 2.5612 11.8763C2.36194 11.677 2.25 11.4067 2.25 11.1249ZM7.03125 15.3749C6.71604 15.3749 6.4079 15.2815 6.14581 15.1064C5.88372 14.9312 5.67944 14.6823 5.55882 14.3911C5.43819 14.0999 5.40663 13.7794 5.46812 13.4703C5.52962 13.1611 5.68141 12.8771 5.9043 12.6542C6.12719 12.4314 6.41117 12.2796 6.72032 12.2181C7.02948 12.1566 7.34993 12.1881 7.64115 12.3088C7.93237 12.4294 8.1813 12.6337 8.3564 12.8958C8.5315 13.1578 8.625 13.466 8.625 13.7812C8.625 14.2039 8.4571 14.6093 8.1582 14.9081C7.85932 15.207 7.45394 15.3749 7.03125 15.3749ZM21.9062 15.3749C21.591 15.3749 21.2829 15.2815 21.0208 15.1064C20.7587 14.9312 20.5544 14.6823 20.4338 14.3911C20.3132 14.0999 20.2816 13.7794 20.3431 13.4703C20.4046 13.1611 20.5564 12.8771 20.7793 12.6542C21.0022 12.4314 21.2862 12.2796 21.5953 12.2181C21.9045 12.1566 22.2249 12.1881 22.5162 12.3088C22.8074 12.4294 23.0563 12.6337 23.2314 12.8958C23.4065 13.1578 23.5 13.466 23.5 13.7812C23.5 14.2039 23.3321 14.6093 23.0332 14.9081C22.7343 15.207 22.3289 15.3749 21.9062 15.3749ZM26.6875 12.1874H25.2531C24.9547 11.5519 24.4814 11.0144 23.8887 10.638C23.296 10.2615 22.6084 10.0616 21.9062 10.0616C21.2041 10.0616 20.5165 10.2615 19.9238 10.638C19.3311 11.0144 18.8578 11.5519 18.5594 12.1874H15V7.9374H24.5625C25.0081 7.9398 25.4482 8.0356 25.8545 8.2186C26.2608 8.4017 26.6242 8.6678 26.9212 8.9999H26.6875C26.4057 8.9999 26.1355 9.1119 25.9362 9.3111C25.7369 9.5104 25.625 9.7807 25.625 10.0624C25.625 10.3442 25.7369 10.6145 25.9362 10.8138C26.1355 11.013 26.4057 11.1249 26.6875 11.1249H27.75C27.75 11.4067 27.6381 11.677 27.4388 11.8763C27.2395 12.0755 26.9693 12.1874 26.6875 12.1874Z" fill="#050B20"/>
</svg>
