<svg width="15" height="15" viewBox="0 0 15 15" fill="none" xmlns="http://www.w3.org/2000/svg">
<path d="M13.8109 0.919952H5.25534C5.04038 0.919952 4.86644 1.0939 4.86644 1.30885C4.86644 1.52381 5.04038 1.69775 5.25534 1.69775H12.8721L0.313709 14.2562C0.161788 14.4081 0.161788 14.6542 0.313709 14.8061C0.389652 14.882 0.489183 14.92 0.588678 14.92C0.688173 14.92 0.787668 14.882 0.863647 14.8061L13.422 2.24765V9.86442C13.422 10.0794 13.5959 10.2533 13.8109 10.2533C14.0259 10.2533 14.1998 10.0794 14.1998 9.86442V1.30885C14.1998 1.0939 14.0258 0.919952 13.8109 0.919952Z" fill="white"/>
</svg>
