<svg width="8" height="12" viewBox="0 0 8 12" fill="none" xmlns="http://www.w3.org/2000/svg">
<path d="M7.17737 6.6L2.02168 11.76C1.86182 11.92 1.66864 12 1.44217 12C1.21569 12 1.01586 11.92 0.842669 11.76C0.66948 11.6 0.582886 11.4 0.582886 11.16C0.582886 10.92 0.676141 10.72 0.862652 10.56L5.41884 6L0.862652 1.44C0.676141 1.28 0.582886 1.08 0.582886 0.84C0.582886 0.6 0.66948 0.400001 0.842669 0.240001C1.01586 0.0799999 1.21569 0 1.44217 0C1.66864 0 1.86182 0.0799999 2.02168 0.240001L7.17737 5.4C7.36388 5.56 7.45714 5.76 7.45714 6C7.45714 6.24 7.36388 6.44 7.17737 6.6Z" fill="white"/>
</svg>
