<svg width="8" height="12" viewBox="0 0 8 12" fill="none" xmlns="http://www.w3.org/2000/svg">
<path d="M0.560059 6C0.560059 5.76 0.653392 5.56 0.840059 5.4L6.00006 0.240001C6.16006 0.0799999 6.35339 0 6.58006 0C6.80673 0 7.00673 0.0799999 7.18006 0.240001C7.35339 0.400001 7.44006 0.6 7.44006 0.84C7.44006 1.08 7.34672 1.28 7.16006 1.44L2.60006 6L7.16006 10.56C7.32006 10.72 7.40006 10.92 7.40006 11.16C7.40006 11.4 7.32006 11.6 7.16006 11.76C7.00006 11.92 6.80673 12 6.58006 12C6.35339 12 6.16006 11.92 6.00006 11.76L0.840059 6.6C0.653392 6.44 0.560059 6.24 0.560059 6Z" fill="white"/>
</svg>
